<?xml version="1.0" encoding="UTF-8"?>
<svg xmlns="http://www.w3.org/2000/svg" xmlns:xlink="http://www.w3.org/1999/xlink" width="737.9999389648438" height="1095"><defs><style type="text/css"><![CDATA[@import url("https://atlas.mindmup.com/_resources/22/fonts.css")]]></style></defs><rect width="100%" height="100%" fill="#FFFFFF"/><g transform="translate(109,642)" style="fill:none;"><g transform="translate(-79,-431)"><path d="M30,422Q30,-21 79,15" stroke="#707070" stroke-width="1" stroke-linecap="round"/></g><g transform="translate(-79,-199)"><path d="M30,190Q30,-12 79,24" stroke="#707070" stroke-width="1" stroke-linecap="round"/></g><g transform="translate(-79,-24)"><path d="M30,15Q30,103 79,67" stroke="#707070" stroke-width="1" stroke-linecap="round"/></g><g transform="translate(-79,-24)"><path d="M30,15Q30,360 79,324" stroke="#707070" stroke-width="1" stroke-linecap="round"/></g><g transform="translate(-79,-24)"><path d="M30,15Q30,459 79,423" stroke="#707070" stroke-width="1" stroke-linecap="round"/></g><g transform="translate(0,-571)"><path d="M62,155Q62,-12 144,24" stroke="#707070" stroke-width="1" stroke-linecap="round"/></g><g transform="translate(144,-612)"><path d="M79,65Q79,-21 178,15" stroke="#707070" stroke-width="1" stroke-linecap="round"/></g><g transform="translate(144,-571)"><path d="M148,24L178,24" stroke="#707070" stroke-width="1" stroke-linecap="round"/></g><g transform="translate(144,-571)"><path d="M79,24Q79,110 178,74" stroke="#707070" stroke-width="1" stroke-linecap="round"/></g><g transform="translate(0,-462)"><path d="M114,46Q114,33 144,33" stroke="#707070" stroke-width="1" stroke-linecap="round"/></g><g transform="translate(144,-462)"><path d="M148,33L178,33" stroke="#707070" stroke-width="1" stroke-linecap="round"/></g><g transform="translate(0,-431)"><path d="M62,15Q62,124 144,88" stroke="#707070" stroke-width="1" stroke-linecap="round"/></g><g transform="translate(0,-199)"><path d="M148,24L178,24" stroke="#707070" stroke-width="1" stroke-linecap="round"/></g><g transform="translate(0,-240)"><path d="M79,65Q79,-21 178,15" stroke="#707070" stroke-width="1" stroke-linecap="round"/></g><g transform="translate(0,-199)"><path d="M79,24Q79,110 178,74" stroke="#707070" stroke-width="1" stroke-linecap="round"/></g><g transform="translate(0,-90)"><path d="M62,133Q62,-12 143,24" stroke="#707070" stroke-width="1" stroke-linecap="round"/></g><g transform="translate(0,12)"><path d="M113,31Q113,15 143,15" stroke="#707070" stroke-width="1" stroke-linecap="round"/></g><g transform="translate(143,-22)"><path d="M40,49Q40,-10.5 99,15" stroke="#707070" stroke-width="1" stroke-linecap="round"/></g><g transform="translate(143,12)"><path d="M69,15Q69,40 99,40" stroke="#707070" stroke-width="1" stroke-linecap="round"/></g><g transform="translate(0,28)"><path d="M62,15Q62,169 143,133" stroke="#707070" stroke-width="1" stroke-linecap="round"/></g><g transform="translate(143,96)"><path d="M48,65Q48,-21 115,15" stroke="#707070" stroke-width="1" stroke-linecap="round"/></g><g transform="translate(143,146)"><path d="M85,15L115,15" stroke="#707070" stroke-width="1" stroke-linecap="round"/></g><g transform="translate(143,146)"><path d="M48,15Q48,101 115,65" stroke="#707070" stroke-width="1" stroke-linecap="round"/></g><g transform="translate(258,196)"><path d="M34,15L64,15" stroke="#707070" stroke-width="1" stroke-linecap="round"/></g><g transform="translate(0,375)"><path d="M80,24L110,24" stroke="#707070" stroke-width="1" stroke-linecap="round"/></g><g transform="translate(110,375)"><path d="M148,24L178,24" stroke="#707070" stroke-width="1" stroke-linecap="round"/></g><g transform="translate(0,276)"><path d="M54,24L84,24" stroke="#707070" stroke-width="1" stroke-linecap="round"/></g><g transform="translate(84,246)"><path d="M79,54Q79,-14.25 178,15" stroke="#707070" stroke-width="1" stroke-linecap="round"/></g><g transform="translate(84,276)"><path d="M79,24Q79,94 178,64" stroke="#707070" stroke-width="1" stroke-linecap="round"/></g><g transform="translate(262,246)"><path d="M125,15Q125,35 179,35" stroke="#707070" stroke-width="1" stroke-linecap="round"/></g><g transform="translate(0,-431)"><path d="M62,15Q62,192 144,156" stroke="#707070" stroke-width="1" stroke-linecap="round"/></g><g transform="translate(242,28)"><path d="M66,68L79,48" stroke="#707070" stroke-width="1" stroke-linecap="square"/><path d="M68,56L79,48L76,62Z" fill="#707070" stroke="#707070" stroke-width="1"/></g><g transform="translate(262,257.2499694824219)"><path d="M179,24L149,83" stroke="#707070" stroke-width="1" stroke-linecap="square"/><path d="M159,73L149,83L151,69Z" fill="#707070" stroke="#707070" stroke-width="1"/></g><g transform="translate(-79,-24)"><rect x="0" y="0" width="59" height="30" border="1" rx="10" ry="10" style="fill:#22AAE0;stroke:#707070;stroke-width:1px;"/><text font-family="NotoSans, 'Helvetica Neue', Roboto, Helvetica, Arial, sans-serif" font-size="12" font-weight="bold" lengthAdjust="spacingAndGlyphs" style="fill:#4F4F4F;"><tspan y="18" x="30" text-anchor="middle" textLength="47">Planner</tspan></text></g><g transform="translate(0,-431)"><rect x="0" y="0" width="124" height="30" border="1" rx="10" ry="10" style="fill:#E0E0E0;stroke:#707070;stroke-width:1px;"/><text font-family="NotoSans, 'Helvetica Neue', Roboto, Helvetica, Arial, sans-serif" font-size="12" font-weight="bold" lengthAdjust="spacingAndGlyphs" style="fill:#4F4F4F;"><tspan y="18" x="62" text-anchor="middle" textLength="112">Création de tâches</tspan></text></g><g transform="translate(0,-199)"><rect x="0" y="0" width="158" height="48" border="1" rx="10" ry="10" style="fill:#E0E0E0;stroke:#707070;stroke-width:1px;"/><text font-family="NotoSans, 'Helvetica Neue', Roboto, Helvetica, Arial, sans-serif" font-size="12" font-weight="bold" lengthAdjust="spacingAndGlyphs" style="fill:#4F4F4F;"><tspan y="18" x="79" text-anchor="middle" textLength="115">Pouvoir mettre des</tspan><tspan y="36" x="79" text-anchor="middle" textLength="43">statuts</tspan></text></g><g transform="translate(0,28)"><rect x="0" y="0" width="123" height="30" border="1" rx="10" ry="10" style="fill:#E0E0E0;stroke:#707070;stroke-width:1px;"/><text font-family="NotoSans, 'Helvetica Neue', Roboto, Helvetica, Arial, sans-serif" font-size="12" font-weight="bold" lengthAdjust="spacingAndGlyphs" style="fill:#4F4F4F;"><tspan y="18" x="62" text-anchor="middle" textLength="111">Afficher les tâches</tspan></text></g><g transform="translate(0,285)"><rect x="0" y="0" width="64" height="30" border="1" rx="10" ry="10" style="fill:#E0E0E0;stroke:#707070;stroke-width:1px;"/><text font-family="NotoSans, 'Helvetica Neue', Roboto, Helvetica, Arial, sans-serif" font-size="12" font-weight="bold" lengthAdjust="spacingAndGlyphs" style="fill:#4F4F4F;"><tspan y="18" x="32" text-anchor="middle" textLength="52">Timeline</tspan></text></g><g transform="translate(0,384)"><rect x="0" y="0" width="90" height="30" border="1" rx="10" ry="10" style="fill:#E0E0E0;stroke:#707070;stroke-width:1px;"/><text font-family="NotoSans, 'Helvetica Neue', Roboto, Helvetica, Arial, sans-serif" font-size="12" font-weight="bold" lengthAdjust="spacingAndGlyphs" style="fill:#4F4F4F;"><tspan y="18" x="45" text-anchor="middle" textLength="78">LocalStorage</tspan></text></g><g transform="translate(144,-571)"><rect x="0" y="0" width="158" height="48" border="1" rx="10" ry="10" style="fill:#E0E0E0;stroke:#707070;stroke-width:1px;"/><text font-family="NotoSans, 'Helvetica Neue', Roboto, Helvetica, Arial, sans-serif" font-size="12" font-weight="bold" lengthAdjust="spacingAndGlyphs" style="fill:#4F4F4F;"><tspan y="18" x="79" text-anchor="middle" textLength="137">Bouton + =&gt; apparition</tspan><tspan y="36" x="79" text-anchor="middle" textLength="66">de la tâche</tspan></text></g><g transform="translate(322,-612)"><rect x="0" y="0" width="110" height="30" border="1" rx="10" ry="10" style="fill:#E0E0E0;stroke:#707070;stroke-width:1px;"/><text font-family="NotoSans, 'Helvetica Neue', Roboto, Helvetica, Arial, sans-serif" font-size="12" font-weight="bold" lengthAdjust="spacingAndGlyphs" style="fill:#4F4F4F;"><tspan y="18" x="55" text-anchor="middle" textLength="98">Nom de la tâche</tspan></text></g><g transform="translate(322,-562)"><rect x="0" y="0" width="81" height="30" border="1" rx="10" ry="10" style="fill:#E0E0E0;stroke:#707070;stroke-width:1px;"/><text font-family="NotoSans, 'Helvetica Neue', Roboto, Helvetica, Arial, sans-serif" font-size="12" font-weight="bold" lengthAdjust="spacingAndGlyphs" style="fill:#4F4F4F;"><tspan y="18" x="41" text-anchor="middle" textLength="69">Description</tspan></text></g><g transform="translate(322,-512)"><rect x="0" y="0" width="66" height="30" border="1" rx="10" ry="10" style="fill:#E0E0E0;stroke:#707070;stroke-width:1px;"/><text font-family="NotoSans, 'Helvetica Neue', Roboto, Helvetica, Arial, sans-serif" font-size="12" font-weight="bold" lengthAdjust="spacingAndGlyphs" style="fill:#4F4F4F;"><tspan y="18" x="33" text-anchor="middle" textLength="54">Deadline</tspan></text></g><g transform="translate(144,-462)"><rect x="0" y="0" width="158" height="66" border="1" rx="10" ry="10" style="fill:#E0E0E0;stroke:#707070;stroke-width:1px;"/><text font-family="NotoSans, 'Helvetica Neue', Roboto, Helvetica, Arial, sans-serif" font-size="12" font-weight="bold" lengthAdjust="spacingAndGlyphs" style="fill:#4F4F4F;"><tspan y="18" x="79" text-anchor="middle" textLength="129">Définition de l&#x27;espace</tspan><tspan y="36" x="79" text-anchor="middle" textLength="106">global de la tâche</tspan><tspan y="54" x="79" text-anchor="middle" textLength="86">(visuellement)</tspan></text></g><g transform="translate(322,-444)"><rect x="0" y="0" width="67" height="30" border="1" rx="10" ry="10" style="fill:#E0E0E0;stroke:#707070;stroke-width:1px;"/><text font-family="NotoSans, 'Helvetica Neue', Roboto, Helvetica, Arial, sans-serif" font-size="12" font-weight="bold" lengthAdjust="spacingAndGlyphs" style="fill:#4F4F4F;"><tspan y="18" x="34" text-anchor="middle" textLength="55">Grid/Flex</tspan></text></g><g transform="translate(144,-376)"><rect x="0" y="0" width="158" height="66" border="1" rx="10" ry="10" style="fill:#E0E0E0;stroke:#707070;stroke-width:1px;"/><text font-family="NotoSans, 'Helvetica Neue', Roboto, Helvetica, Arial, sans-serif" font-size="12" font-weight="bold" lengthAdjust="spacingAndGlyphs" style="fill:#4F4F4F;"><tspan y="18" x="79" text-anchor="middle" textLength="132">Panneau pour remplir</tspan><tspan y="36" x="79" text-anchor="middle" textLength="102">les champs/infos</tspan><tspan y="54" x="79" text-anchor="middle" textLength="70">nécessaires</tspan></text></g><g transform="translate(178,-190)"><rect x="0" y="0" width="109" height="30" border="1" rx="10" ry="10" style="fill:#E0E0E0;stroke:#707070;stroke-width:1px;"/><text font-family="NotoSans, 'Helvetica Neue', Roboto, Helvetica, Arial, sans-serif" font-size="12" font-weight="bold" lengthAdjust="spacingAndGlyphs" style="fill:#4F4F4F;"><tspan y="18" x="55" text-anchor="middle" textLength="97">En cours (doing)</tspan></text></g><g transform="translate(178,-240)"><rect x="0" y="0" width="94" height="30" border="1" rx="10" ry="10" style="fill:#E0E0E0;stroke:#707070;stroke-width:1px;"/><text font-family="NotoSans, 'Helvetica Neue', Roboto, Helvetica, Arial, sans-serif" font-size="12" font-weight="bold" lengthAdjust="spacingAndGlyphs" style="fill:#4F4F4F;"><tspan y="18" x="47" text-anchor="middle" textLength="82">A faire (to do)</tspan></text></g><g transform="translate(178,-140)"><rect x="0" y="0" width="110" height="30" border="1" rx="10" ry="10" style="fill:#E0E0E0;stroke:#707070;stroke-width:1px;"/><text font-family="NotoSans, 'Helvetica Neue', Roboto, Helvetica, Arial, sans-serif" font-size="12" font-weight="bold" lengthAdjust="spacingAndGlyphs" style="fill:#4F4F4F;"><tspan y="18" x="55" text-anchor="middle" textLength="98">Terminée (done)</tspan></text></g><g transform="translate(143,-90)"><rect x="0" y="0" width="158" height="48" border="1" rx="10" ry="10" style="fill:#E0E0E0;stroke:#707070;stroke-width:1px;"/><text font-family="NotoSans, 'Helvetica Neue', Roboto, Helvetica, Arial, sans-serif" font-size="12" font-weight="bold" lengthAdjust="spacingAndGlyphs" style="fill:#4F4F4F;"><tspan y="18" x="79" text-anchor="middle" textLength="130">Même principe que le</tspan><tspan y="36" x="79" text-anchor="middle" textLength="138">panier de Dark Kitchen</tspan></text></g><g transform="translate(143,12)"><rect x="0" y="0" width="79" height="30" border="1" rx="10" ry="10" style="fill:#E0E0E0;stroke:#707070;stroke-width:1px;"/><text font-family="NotoSans, 'Helvetica Neue', Roboto, Helvetica, Arial, sans-serif" font-size="12" font-weight="bold" lengthAdjust="spacingAndGlyphs" style="fill:#4F4F4F;"><tspan y="18" x="40" text-anchor="middle" textLength="67">Par défaut:</tspan></text></g><g transform="translate(242,-22)"><rect x="0" y="0" width="101" height="30" border="1" rx="10" ry="10" style="fill:#E0E0E0;stroke:#707070;stroke-width:1px;"/><text font-family="NotoSans, 'Helvetica Neue', Roboto, Helvetica, Arial, sans-serif" font-size="12" font-weight="bold" lengthAdjust="spacingAndGlyphs" style="fill:#4F4F4F;"><tspan y="18" x="51" text-anchor="middle" textLength="89">Chronologique</tspan></text></g><g transform="translate(242,28)"><rect x="0" y="0" width="158" height="48" border="1" rx="10" ry="10" style="fill:#E0E0E0;stroke:#707070;stroke-width:1px;"/><text font-family="NotoSans, 'Helvetica Neue', Roboto, Helvetica, Arial, sans-serif" font-size="12" font-weight="bold" lengthAdjust="spacingAndGlyphs" style="fill:#4F4F4F;"><tspan y="18" x="79" text-anchor="middle" textLength="142">Par priorité (deadline la</tspan><tspan y="36" x="79" text-anchor="middle" textLength="72">plus courte)</tspan></text></g><g transform="translate(143,146)"><rect x="0" y="0" width="95" height="30" border="1" rx="10" ry="10" style="fill:#E0E0E0;stroke:#707070;stroke-width:1px;"/><text font-family="NotoSans, 'Helvetica Neue', Roboto, Helvetica, Arial, sans-serif" font-size="12" font-weight="bold" lengthAdjust="spacingAndGlyphs" style="fill:#4F4F4F;"><tspan y="18" x="48" text-anchor="middle" textLength="83">Tri des tâches</tspan></text></g><g transform="translate(258,96)"><rect x="0" y="0" width="99" height="30" border="1" rx="10" ry="10" style="fill:#E0E0E0;stroke:#707070;stroke-width:1px;"/><text font-family="NotoSans, 'Helvetica Neue', Roboto, Helvetica, Arial, sans-serif" font-size="12" font-weight="bold" lengthAdjust="spacingAndGlyphs" style="fill:#4F4F4F;"><tspan y="18" x="50" text-anchor="middle" textLength="87">Temps restant</tspan></text></g><g transform="translate(258,146)"><rect x="0" y="0" width="63" height="30" border="1" rx="10" ry="10" style="fill:#E0E0E0;stroke:#707070;stroke-width:1px;"/><text font-family="NotoSans, 'Helvetica Neue', Roboto, Helvetica, Arial, sans-serif" font-size="12" font-weight="bold" lengthAdjust="spacingAndGlyphs" style="fill:#4F4F4F;"><tspan y="18" x="32" text-anchor="middle" textLength="51">Par nom</tspan></text></g><g transform="translate(258,196)"><rect x="0" y="0" width="44" height="30" border="1" rx="10" ry="10" style="fill:#E0E0E0;stroke:#707070;stroke-width:1px;"/><text font-family="NotoSans, 'Helvetica Neue', Roboto, Helvetica, Arial, sans-serif" font-size="12" font-weight="bold" lengthAdjust="spacingAndGlyphs" style="fill:#4F4F4F;"><tspan y="18" x="22" text-anchor="middle" textLength="32">Filtre</tspan></text></g><g transform="translate(322,196)"><rect x="0" y="0" width="92" height="30" border="1" rx="10" ry="10" style="fill:#E0E0E0;stroke:#707070;stroke-width:1px;"/><text font-family="NotoSans, 'Helvetica Neue', Roboto, Helvetica, Arial, sans-serif" font-size="12" font-weight="bold" lengthAdjust="spacingAndGlyphs" style="fill:#4F4F4F;"><tspan y="18" x="46" text-anchor="middle" textLength="80">Par étiquette</tspan></text></g><g transform="translate(110,375)"><rect x="0" y="0" width="158" height="48" border="1" rx="10" ry="10" style="fill:#E0E0E0;stroke:#707070;stroke-width:1px;"/><text font-family="NotoSans, 'Helvetica Neue', Roboto, Helvetica, Arial, sans-serif" font-size="12" font-weight="bold" lengthAdjust="spacingAndGlyphs" style="fill:#4F4F4F;"><tspan y="18" x="79" text-anchor="middle" textLength="133">Stockage des données</tspan><tspan y="36" x="79" text-anchor="middle" textLength="62">au refresh</tspan></text></g><g transform="translate(288,375)"><rect x="0" y="0" width="158" height="48" border="1" rx="10" ry="10" style="fill:#800000;stroke:#707070;stroke-width:1px;"/><text font-family="NotoSans, 'Helvetica Neue', Roboto, Helvetica, Arial, sans-serif" font-size="12" font-weight="bold" lengthAdjust="spacingAndGlyphs" style="fill:#FFFFFF;"><tspan y="18" x="79" text-anchor="middle" textLength="126">PLUS TARD: stockage</tspan><tspan y="36" x="79" text-anchor="middle" textLength="139">des données tout court</tspan></text></g><g transform="translate(84,276)"><rect x="0" y="0" width="158" height="48" border="1" rx="10" ry="10" style="fill:#E0E0E0;stroke:#707070;stroke-width:1px;"/><text font-family="NotoSans, 'Helvetica Neue', Roboto, Helvetica, Arial, sans-serif" font-size="12" font-weight="bold" lengthAdjust="spacingAndGlyphs" style="fill:#4F4F4F;"><tspan y="18" x="79" text-anchor="middle" textLength="140">Définir jour de création</tspan><tspan y="36" x="79" text-anchor="middle" textLength="94">du projet/tâche</tspan></text></g><g transform="translate(262,246)"><rect x="0" y="0" width="135" height="30" border="1" rx="10" ry="10" style="fill:#E0E0E0;stroke:#707070;stroke-width:1px;"/><text font-family="NotoSans, 'Helvetica Neue', Roboto, Helvetica, Arial, sans-serif" font-size="12" font-weight="bold" lengthAdjust="spacingAndGlyphs" style="fill:#4F4F4F;"><tspan y="18" x="68" text-anchor="middle" textLength="123">new Date() à stocker</tspan></text></g><g transform="translate(262,325)"><rect x="0" y="0" width="149" height="30" border="1" rx="10" ry="10" style="fill:#E0E0E0;stroke:#707070;stroke-width:1px;"/><text font-family="NotoSans, 'Helvetica Neue', Roboto, Helvetica, Arial, sans-serif" font-size="12" font-weight="bold" lengthAdjust="spacingAndGlyphs" style="fill:#4F4F4F;"><tspan y="18" x="75" text-anchor="middle" textLength="137">Déterminer date de fin</tspan></text></g><g transform="translate(440.99993896484375,257.2499694824219)"><rect x="0" y="0" width="158" height="48" border="1" rx="10" ry="10" style="fill:#E0E0E0;stroke:#707070;stroke-width:1px;"/><text font-family="NotoSans, 'Helvetica Neue', Roboto, Helvetica, Arial, sans-serif" font-size="12" font-weight="bold" lengthAdjust="spacingAndGlyphs" style="fill:#4F4F4F;"><tspan y="18" x="79" text-anchor="middle" textLength="127">Affichage d&#x27;une ligne</tspan><tspan y="36" x="79" text-anchor="middle" textLength="98">&quot;chronologique&quot;</tspan></text></g><g transform="translate(144,-290)"><rect x="0" y="0" width="154" height="30" border="1" rx="10" ry="10" style="fill:#E0E0E0;stroke:#707070;stroke-width:1px;"/><text font-family="NotoSans, 'Helvetica Neue', Roboto, Helvetica, Arial, sans-serif" font-size="12" font-weight="bold" lengthAdjust="spacingAndGlyphs" style="fill:#4F4F4F;"><tspan y="18" x="77" text-anchor="middle" textLength="142">Suppression de la tâche</tspan></text></g></g></svg>